<svg xmlns="http://www.w3.org/2000/svg" viewBox="417.5 106.5 2252 1172"><path d="M763.3 291.9c-90.7-.9-166.4 75.2-166.5 166-.1 91.2 73.3 164.7 164.5 164.9 93.1.2 166.4-72.2 166.3-164.9-.2-98.7-78.6-165.1-164.3-166z"/><path d="M2647.9 525.6c-.5-8.6-12.7-17-20.8-14.6-3.9 1.2-8 2.9-10.9 5.5-12 10.8-23.5 22-35.3 33-8.7 8.2-17.3 16.5-26.4 24.3-17.6 15-35.4 29.9-53.4 44.5-21.6 17.4-44.2 33.4-69.3 45.3-14.9 7.1-30.4 9.4-45.9 2.3-6.2-2.8-11.8-7.3-17.5-11.2-18.8-13.1-36.7-27.4-52.9-43.6-6.3-6.4-12.8-12.7-18.5-19.6-8.7-10.6-17.4-21.3-25.1-32.7-11.4-16.8-20.4-34.9-26.8-54.2-6.1-18.1-11.7-36.4-10.2-55.8 1-12.4 4.2-24.4 13.2-33.5 10.2-10.4 21-20.2 32-29.9 12.5-11.1 25.3-21.9 38.3-32.4 15.1-12.3 30.3-24.7 46-36.2 18.3-13.4 37.3-25.9 55.7-39.1 8.4-6.1 15.8-19 11.6-31.1-1.7-4.8-4.1-9.9-9.4-11.3-4.6-1.2-9.5-1.1-14.3-1.2-9.7-.2-19.5-.6-29.2.1-18 1.3-36.1 2.1-53.8 5.3-45.6 8.1-88.8 24-130.4 44.3-30.9 15.1-56.8 29.2-84.9 48.9-6.2 4.3-25.1 24.4-29.4 30.3-13 17.7-17.1 23.6-28.8 42.3-20 32-39.7 64.3-58.8 96.9-16.4 28.1-37.1 52.1-63.3 71.1-14.8 10.8-30.4 20.7-45.9 30.5-11.1 6.9-22.3 14-34.3 19.1-130.1 55.4-260.5 110.3-390.5 165.8-10.7 4.6-18.9 4.8-29.5-.6-36-18.3-74.2-29.5-115-30.2-2 0-4.5-2-5.8-3.8-70.1-96.8-140.1-193.6-209.9-290.5-3.5-4.9-6.3-10.7-7.7-16.5-2.3-9-3.4-18.3-4.6-27.5-1.6-12.4-4.2-33.7-6.5-44-10.5-46.5-38.5-97.9-77-140.6-25.4-28.1-55.7-49.5-88.9-67.1-34.7-18.4-71.4-30.1-110.4-34.9-9.1-1.1-18.2-2-27.2-2.9-11.5-.3-32.8.9-32.8.9-9.6 1-19.3 1.4-28.8 3.1-78.3 13.2-145.4 47.7-197.5 108.2-66.9 77.6-92.1 168.2-76.8 269.2 12.9 84.8 55.7 153 122.6 205.8 53.8 42.4 116.5 62.6 184.1 68.9 7.8.7 15 1.5 21.8 6.7 53.4 40.4 107.3 80.3 160.9 120.4 39 29.2 77.6 58.8 116.9 87.4 9.2 6.7 13.5 14.6 14.6 25.2.9 8.3 1.8 16.6 3.3 24.7 14.9 82.8 59.6 144.1 134.4 182.4 49.2 25.2 101.8 31.4 156.1 22 62.7-10.8 113.4-42.3 152.7-91.9 24.5-30.9 38.5-67.2 48.5-105 1.4-5.2 3.8-8.1 8.8-10.2 101.6-42.9 203.1-86.1 304.6-129 52.6-22.2 105.1-44.9 158.2-65.8 40.8-16 83.2-26.9 127.2-29.9 23-1.5 46.1-.3 68.9 4.5 20.2 4.2 40.4 9 60.7 12.3 15.8 2.6 32.2 4.6 47.9 5.7 17.6.6 36.2 1.8 53.1.1 15.2-1.6 40.2-6 53.9-13 27.8-14.2 51-32.7 73.4-54.2 11.8-11.4 22.9-23.7 33.3-36.3 22.1-26.8 41.3-54.4 57.6-85 16.5-31.1 28.1-62.3 38.5-96 3-11 6.2-24 5.6-35.7zM762.4 684.2c-104 1-225.9-85.7-225.4-228 .5-128.9 109.2-225.7 229-224.5 120 1.2 223.7 105.5 222.7 227-.9 116.7-92.2 222.2-226.3 225.5zM1463 1133c-2.1 2.4-3.9 5-6 7.3-33.9 37.7-76.2 59-126.5 64.7-92.7 10.5-189.4-49.6-212.3-155.4-13.9-64.1 2.4-121.2 45.8-170.2 30.3-34.1 68.2-55.6 113.2-63.9 21.1-3.9 42.4-4.1 63.6-.5 8.6 1.5 16.8 4.6 23 11.2 7.1 7.5 9.6 16.2 5.5 26.2-4 9.7-9.3 18.1-21 18.7-10.1.5-20.3.1-30.5.1-24.3-1.6-47.9 2.1-69.3 13.6-44.6 23.8-71.6 60.3-76.5 111.5-3.7 38.3 6.8 73.2 30.1 103.5 15.1 19.6 36.1 31.8 59.3 40.1 35.7 12.8 70.9 12 106.2-2.7 13.2-5.5 24.1-13.1 34.1-22.9 6.2-6.1 12.6-11.9 19.3-17.4 8-6.5 17.3-10.3 27.8-8.8 3.9.6 8.3 2.1 11 4.7 10.6 10.8 16.8 25.1 3.2 40.2zm758.3-369.6c-8 12.1-24.1 16.8-37 9.4-9.9-5.7-19.1-12.8-27.8-20.2-57.7-49.2-92.8-111.2-105.2-186-3.2-19.1-4.2-38.4-3.3-57.8.7-15.2 13.7-27.1 29.3-27 15.5.1 28.2 12.6 28.6 28.2.1 4.3 0 8.7 0 13 2.9 81.1 36.1 146.5 101 195.6 2.9 2.2 6.1 4 8.9 6.4 11.6 9.8 13.8 25.9 5.5 38.4z"/></svg>
